<?xml version="1.0" encoding="UTF-8" standalone="no"?>
<!DOCTYPE svg PUBLIC "-//W3C//DTD SVG 1.1//EN"
 "http://www.w3.org/Graphics/SVG/1.1/DTD/svg11.dtd">
<!-- Generated by graphviz version 2.40.1 (20161225.0304)
 -->
<!-- Title: G Pages: 1 -->
<svg width="149pt" height="714pt"
 viewBox="0.00 0.00 149.00 714.00" xmlns="http://www.w3.org/2000/svg" xmlns:xlink="http://www.w3.org/1999/xlink">
<g id="graph0" class="graph" transform="scale(1 1) rotate(0) translate(4 710)">
<title>G</title>
<polygon fill="#ffffff" stroke="transparent" points="-4,4 -4,-710 145,-710 145,4 -4,4"/>
<!-- A0 -->
<g id="node1" class="node">
<title>A0</title>
<polygon fill="none" stroke="#000000" points="32.5,-674 32.5,-706 109.5,-706 109.5,-674 32.5,-674"/>
<text text-anchor="start" x="42.2455" y="-687" font-family="Helvetica,sans-Serif" font-size="10.00" fill="#000000">+I:ICustomer</text>
<polygon fill="none" stroke="#000000" points="32.5,-642 32.5,-674 109.5,-674 109.5,-642 32.5,-642"/>
<text text-anchor="start" x="55.1685" y="-655" font-family="Helvetica,sans-Serif" font-size="10.00" fill="#000000">Greet()</text>
</g>
<!-- A1 -->
<g id="node2" class="node">
<title>A1</title>
<polygon fill="none" stroke="#000000" points=".5,-560 .5,-592 141.5,-592 141.5,-560 .5,-560"/>
<text text-anchor="start" x="46.414" y="-573" font-family="Helvetica,sans-Serif" font-size="10.00" fill="#000000">+Customer</text>
<polygon fill="none" stroke="#000000" points=".5,-516 .5,-560 141.5,-560 141.5,-516 .5,-516"/>
<text text-anchor="start" x="41.9655" y="-541" font-family="Helvetica,sans-Serif" font-size="10.00" fill="#000000">+name:string</text>
<text text-anchor="start" x="14.891" y="-529" font-family="Helvetica,sans-Serif" font-size="10.00" fill="#000000">&#45;creditCardNumber:string</text>
<polygon fill="none" stroke="#000000" points=".5,-472 .5,-516 141.5,-516 141.5,-472 .5,-472"/>
<text text-anchor="start" x="10.447" y="-497" font-family="Helvetica,sans-Serif" font-size="10.00" fill="#000000">CreditCardNumber:string:w</text>
<text text-anchor="start" x="55.1685" y="-485" font-family="Helvetica,sans-Serif" font-size="10.00" fill="#000000">Greet()</text>
<polygon fill="none" stroke="#000000" points=".5,-452 .5,-472 141.5,-472 141.5,-452 .5,-452"/>
</g>
<!-- A0&#45;&gt;A1 -->
<g id="edge2" class="edge">
<title>A0&#45;&gt;A1</title>
<path fill="none" stroke="#000000" d="M70.5,-631.4156C70.5,-619.1669 70.5,-605.4724 70.5,-592.0285"/>
<polygon fill="none" stroke="#000000" points="67.0001,-631.7647 70.5,-641.7647 74.0001,-631.7647 67.0001,-631.7647"/>
</g>
<!-- A3 -->
<g id="node4" class="node">
<title>A3</title>
<polygon fill="none" stroke="#000000" points=".5,-370 .5,-402 141.5,-402 141.5,-370 .5,-370"/>
<text text-anchor="start" x="38.906" y="-383" font-family="Helvetica,sans-Serif" font-size="10.00" fill="#000000">+CupOfCoffee</text>
<polygon fill="none" stroke="#000000" points=".5,-338 .5,-370 141.5,-370 141.5,-338 .5,-338"/>
<text text-anchor="start" x="32.237" y="-351" font-family="Helvetica,sans-Serif" font-size="10.00" fill="#000000">+beanType:string</text>
<polygon fill="none" stroke="#000000" points=".5,-306 .5,-338 141.5,-338 141.5,-306 .5,-306"/>
<text text-anchor="start" x="46.135" y="-319" font-family="Helvetica,sans-Serif" font-size="10.00" fill="#000000">+Steam():o</text>
<polygon fill="none" stroke="#000000" points=".5,-262 .5,-306 141.5,-306 141.5,-262 .5,-262"/>
<text text-anchor="start" x="64.7515" y="-287" font-family="Helvetica,sans-Serif" font-size="10.00" fill="#000000">+()</text>
<text text-anchor="start" x="10.0175" y="-275" font-family="Helvetica,sans-Serif" font-size="10.00" fill="#000000">+(brand:string):base(brand)</text>
</g>
<!-- A1&#45;&gt;A3 -->
<g id="edge3" class="edge">
<title>A1&#45;&gt;A3</title>
<path fill="none" stroke="#000000" d="M70.5,-451.7908C70.5,-435.6171 70.5,-418.4126 70.5,-402.2376"/>
<text text-anchor="middle" x="78.9524" y="-417.3638" font-family="Helvetica,sans-Serif" font-size="10.00" fill="#000000">0..</text>
<text text-anchor="middle" x="62.0476" y="-430.6647" font-family="Helvetica,sans-Serif" font-size="10.00" fill="#000000">1</text>
</g>
<!-- A2 -->
<g id="node3" class="node">
<title>A2</title>
<polygon fill="none" stroke="#000000" points="1.5,-180 1.5,-212 140.5,-212 140.5,-180 1.5,-180"/>
<text text-anchor="start" x="43.915" y="-193" font-family="Helvetica,sans-Serif" font-size="10.00" fill="#000000">+A:HotDrink</text>
<polygon fill="none" stroke="#000000" points="1.5,-88 1.5,-180 140.5,-180 140.5,-88 1.5,-88"/>
<text text-anchor="start" x="42.516" y="-161" font-family="Helvetica,sans-Serif" font-size="10.00" fill="#000000">+instant:bool</text>
<text text-anchor="start" x="48.3595" y="-149" font-family="Helvetica,sans-Serif" font-size="10.00" fill="#000000">+milk:bool</text>
<text text-anchor="start" x="45.9945" y="-137" font-family="Helvetica,sans-Serif" font-size="10.00" fill="#000000">&#45;sugar:byte</text>
<text text-anchor="start" x="41.686" y="-125" font-family="Helvetica,sans-Serif" font-size="10.00" fill="#000000">+brand:string</text>
<text text-anchor="start" x="45.5795" y="-113" font-family="Helvetica,sans-Serif" font-size="10.00" fill="#000000">+size:string</text>
<text text-anchor="start" x="24.4675" y="-101" font-family="Helvetica,sans-Serif" font-size="10.00" fill="#000000">+customer:Customer</text>
<polygon fill="none" stroke="#000000" points="1.5,-44 1.5,-88 140.5,-88 140.5,-44 1.5,-44"/>
<text text-anchor="start" x="11.121" y="-69" font-family="Helvetica,sans-Serif" font-size="10.00" fill="#000000">+AddSugar(amount:byte):v</text>
<text text-anchor="start" x="49.464" y="-57" font-family="Helvetica,sans-Serif" font-size="10.00" fill="#000000">+Steam:a</text>
<polygon fill="none" stroke="#000000" points="1.5,0 1.5,-44 140.5,-44 140.5,0 1.5,0"/>
<text text-anchor="start" x="64.7515" y="-25" font-family="Helvetica,sans-Serif" font-size="10.00" fill="#000000">+()</text>
<text text-anchor="start" x="38.357" y="-13" font-family="Helvetica,sans-Serif" font-size="10.00" fill="#000000">+(brand:string)</text>
</g>
<!-- A3&#45;&gt;A2 -->
<g id="edge1" class="edge">
<title>A3&#45;&gt;A2</title>
<path fill="none" stroke="#000000" stroke-dasharray="5,2" d="M70.5,-251.6515C70.5,-238.9037 70.5,-225.5494 70.5,-212.3177"/>
<polygon fill="#000000" stroke="#000000" points="70.5,-261.731 66.0001,-251.731 70.5,-256.731 70.5001,-251.731 70.5001,-251.731 70.5001,-251.731 70.5,-256.731 75.0001,-251.7311 70.5,-261.731 70.5,-261.731"/>
</g>
</g>
</svg>
