<?xml version="1.0" encoding="UTF-8" standalone="no"?>
<!DOCTYPE svg PUBLIC "-//W3C//DTD SVG 1.1//EN"
 "http://www.w3.org/Graphics/SVG/1.1/DTD/svg11.dtd">
<!-- Generated by graphviz version 2.40.1 (20161225.0304)
 -->
<!-- Title: G Pages: 1 -->
<svg width="1015pt" height="398pt"
 viewBox="0.00 0.00 1015.00 398.00" xmlns="http://www.w3.org/2000/svg" xmlns:xlink="http://www.w3.org/1999/xlink">
<g id="graph0" class="graph" transform="scale(1 1) rotate(0) translate(4 394)">
<title>G</title>
<polygon fill="#ffffff" stroke="transparent" points="-4,4 -4,-394 1011,-394 1011,4 -4,4"/>
<!-- A0 -->
<g id="node1" class="node">
<title>A0</title>
<polygon fill="none" stroke="#000000" points="430.5,-358 430.5,-390 591.5,-390 591.5,-358 430.5,-358"/>
<text text-anchor="start" x="493.6335" y="-371" font-family="Helvetica,sans-Serif" font-size="10.00" fill="#000000">+A:Tool</text>
<polygon fill="none" stroke="#000000" points="430.5,-302 430.5,-358 591.5,-358 591.5,-302 430.5,-302"/>
<text text-anchor="start" x="485.02" y="-339" font-family="Helvetica,sans-Serif" font-size="10.00" fill="#000000">+type:string</text>
<text text-anchor="start" x="472.2425" y="-327" font-family="Helvetica,sans-Serif" font-size="10.00" fill="#000000">+strokeWeight:int</text>
<text text-anchor="start" x="475.992" y="-315" font-family="Helvetica,sans-Serif" font-size="10.00" fill="#000000">&#45;fullness:double</text>
<polygon fill="none" stroke="#000000" points="430.5,-234 430.5,-302 591.5,-302 591.5,-234 430.5,-234"/>
<text text-anchor="start" x="486.4145" y="-283" font-family="Helvetica,sans-Serif" font-size="10.00" fill="#000000">+Fullness:r</text>
<text text-anchor="start" x="440.29" y="-271" font-family="Helvetica,sans-Serif" font-size="10.00" fill="#000000">+Refill(amount:double):double:v</text>
<text text-anchor="start" x="484.7495" y="-259" font-family="Helvetica,sans-Serif" font-size="10.00" fill="#000000">+PickUp():a</text>
<text text-anchor="start" x="483.63" y="-247" font-family="Helvetica,sans-Serif" font-size="10.00" fill="#000000">+PutDown:a</text>
<polygon fill="none" stroke="#000000" points="430.5,-214 430.5,-234 591.5,-234 591.5,-214 430.5,-214"/>
</g>
<!-- A1 -->
<g id="node2" class="node">
<title>A1</title>
<polygon fill="none" stroke="#000000" points="353.5,-132 353.5,-164 668.5,-164 668.5,-132 353.5,-132"/>
<text text-anchor="start" x="486.129" y="-145" font-family="Helvetica,sans-Serif" font-size="10.00" fill="#000000">+BrushPen</text>
<polygon fill="none" stroke="#000000" points="353.5,-100 353.5,-132 668.5,-132 668.5,-100 353.5,-100"/>
<text text-anchor="start" x="483.6355" y="-113" font-family="Helvetica,sans-Serif" font-size="10.00" fill="#000000">+color:string</text>
<polygon fill="none" stroke="#000000" points="353.5,-32 353.5,-100 668.5,-100 668.5,-32 353.5,-32"/>
<text text-anchor="start" x="464.745" y="-81" font-family="Helvetica,sans-Serif" font-size="10.00" fill="#000000">+Paint(picture:string)</text>
<text text-anchor="start" x="464.4695" y="-69" font-family="Helvetica,sans-Serif" font-size="10.00" fill="#000000">+Draw(doodle:string)</text>
<text text-anchor="start" x="485.5795" y="-57" font-family="Helvetica,sans-Serif" font-size="10.00" fill="#000000">+Pickup():o</text>
<text text-anchor="start" x="480.301" y="-45" font-family="Helvetica,sans-Serif" font-size="10.00" fill="#000000">+PutDown():o</text>
<polygon fill="none" stroke="#000000" points="353.5,0 353.5,-32 668.5,-32 668.5,0 353.5,0"/>
<text text-anchor="start" x="363.064" y="-13" font-family="Helvetica,sans-Serif" font-size="10.00" fill="#000000">+(type:string,strokeWeight:int,color:string):base(type,strokeWeight)</text>
</g>
<!-- A0&#45;&gt;A1 -->
<g id="edge5" class="edge">
<title>A0&#45;&gt;A1</title>
<path fill="none" stroke="#000000" stroke-dasharray="5,2" d="M510.5,-203.7351C510.5,-190.5175 510.5,-177.0713 510.5,-164.1716"/>
<polygon fill="#000000" stroke="#000000" points="510.5,-213.7852 506.0001,-203.7852 510.5,-208.7852 510.5001,-203.7852 510.5001,-203.7852 510.5001,-203.7852 510.5,-208.7852 515.0001,-203.7853 510.5,-213.7852 510.5,-213.7852"/>
</g>
<!-- A2 -->
<g id="node3" class="node">
<title>A2</title>
<polygon fill="none" stroke="#000000" points=".5,-126 .5,-158 335.5,-158 335.5,-126 .5,-126"/>
<text text-anchor="start" x="151.468" y="-139" font-family="Helvetica,sans-Serif" font-size="10.00" fill="#000000">+Pencil</text>
<polygon fill="none" stroke="#000000" points=".5,-94 .5,-126 335.5,-126 335.5,-94 .5,-94"/>
<text text-anchor="start" x="130.9065" y="-107" font-family="Helvetica,sans-Serif" font-size="10.00" fill="#000000">+hardness:string</text>
<polygon fill="none" stroke="#000000" points=".5,-38 .5,-94 335.5,-94 335.5,-38 .5,-38"/>
<text text-anchor="start" x="121.4695" y="-75" font-family="Helvetica,sans-Serif" font-size="10.00" fill="#000000">+Draw(doodle:string)</text>
<text text-anchor="start" x="142.5795" y="-63" font-family="Helvetica,sans-Serif" font-size="10.00" fill="#000000">+Pickup():o</text>
<text text-anchor="start" x="137.301" y="-51" font-family="Helvetica,sans-Serif" font-size="10.00" fill="#000000">+PutDown():o</text>
<polygon fill="none" stroke="#000000" points=".5,-6 .5,-38 335.5,-38 335.5,-6 .5,-6"/>
<text text-anchor="start" x="10.335" y="-19" font-family="Helvetica,sans-Serif" font-size="10.00" fill="#000000">+(type:string,strokeWeight:int,hardness:string):base(type,strokeWeight)</text>
</g>
<!-- A0&#45;&gt;A2 -->
<g id="edge6" class="edge">
<title>A0&#45;&gt;A2</title>
<path fill="none" stroke="#000000" stroke-dasharray="5,2" d="M420.9906,-244.5887C379.8095,-218.1752 330.3802,-186.4713 286.1491,-158.1015"/>
<polygon fill="#000000" stroke="#000000" points="429.6481,-250.1417 418.8012,-248.5305 425.4394,-247.4422 421.2307,-244.7427 421.2307,-244.7427 421.2307,-244.7427 425.4394,-247.4422 423.6603,-240.9549 429.6481,-250.1417 429.6481,-250.1417"/>
</g>
<!-- A3 -->
<g id="node4" class="node">
<title>A3</title>
<polygon fill="none" stroke="#000000" points="686.5,-126 686.5,-158 1007.5,-158 1007.5,-126 686.5,-126"/>
<text text-anchor="start" x="819.63" y="-139" font-family="Helvetica,sans-Serif" font-size="10.00" fill="#000000">+PaintBrush</text>
<polygon fill="none" stroke="#000000" points="686.5,-94 686.5,-126 1007.5,-126 1007.5,-94 686.5,-94"/>
<text text-anchor="start" x="816.8505" y="-107" font-family="Helvetica,sans-Serif" font-size="10.00" fill="#000000">+shape:string</text>
<polygon fill="none" stroke="#000000" points="686.5,-38 686.5,-94 1007.5,-94 1007.5,-38 686.5,-38"/>
<text text-anchor="start" x="800.745" y="-75" font-family="Helvetica,sans-Serif" font-size="10.00" fill="#000000">+Paint(picture:string)</text>
<text text-anchor="start" x="821.5795" y="-63" font-family="Helvetica,sans-Serif" font-size="10.00" fill="#000000">+Pickup():o</text>
<text text-anchor="start" x="816.301" y="-51" font-family="Helvetica,sans-Serif" font-size="10.00" fill="#000000">+PutDown():o</text>
<polygon fill="none" stroke="#000000" points="686.5,-6 686.5,-38 1007.5,-38 1007.5,-6 686.5,-6"/>
<text text-anchor="start" x="696.279" y="-19" font-family="Helvetica,sans-Serif" font-size="10.00" fill="#000000">+(type:string,strokeWeight:int,shape:string):base(type,strokeWeight)</text>
</g>
<!-- A0&#45;&gt;A3 -->
<g id="edge7" class="edge">
<title>A0&#45;&gt;A3</title>
<path fill="none" stroke="#000000" stroke-dasharray="5,2" d="M599.8319,-243.5089C639.8783,-217.288 687.6275,-186.0237 730.3997,-158.0181"/>
<polygon fill="#000000" stroke="#000000" points="591.408,-249.0246 597.3091,-239.7819 595.5911,-246.2856 599.7742,-243.5467 599.7742,-243.5467 599.7742,-243.5467 595.5911,-246.2856 602.2392,-247.3114 591.408,-249.0246 591.408,-249.0246"/>
</g>
<!-- A4 -->
<g id="node5" class="node">
<title>A4</title>
<polygon fill="none" stroke="#000000" points="232.5,-302 232.5,-334 308.5,-334 308.5,-302 232.5,-302"/>
<text text-anchor="start" x="242.026" y="-315" font-family="Helvetica,sans-Serif" font-size="10.00" fill="#000000">+I:IDrawTool</text>
<polygon fill="none" stroke="#000000" points="232.5,-270 232.5,-302 308.5,-302 308.5,-270 232.5,-270"/>
<text text-anchor="start" x="252.5885" y="-283" font-family="Helvetica,sans-Serif" font-size="10.00" fill="#000000">+Draw()</text>
</g>
<!-- A4&#45;&gt;A1 -->
<g id="edge2" class="edge">
<title>A4&#45;&gt;A1</title>
<path fill="none" stroke="#000000" d="M313.3744,-262.6985C343.1939,-235.3639 384.0392,-197.9224 420.8182,-164.2083"/>
<polygon fill="none" stroke="#000000" points="310.6616,-260.4372 305.6551,-269.7745 315.3917,-265.5973 310.6616,-260.4372"/>
</g>
<!-- A4&#45;&gt;A2 -->
<g id="edge1" class="edge">
<title>A4&#45;&gt;A2</title>
<path fill="none" stroke="#000000" d="M250.9376,-260.2162C237.4961,-231.5061 219.2587,-192.5526 203.2624,-158.3857"/>
<polygon fill="none" stroke="#000000" points="247.892,-261.9657 255.302,-269.5382 254.2316,-258.9976 247.892,-261.9657"/>
</g>
<!-- A5 -->
<g id="node6" class="node">
<title>A5</title>
<polygon fill="none" stroke="#000000" points="708.5,-302 708.5,-334 784.5,-334 784.5,-302 708.5,-302"/>
<text text-anchor="start" x="718.2965" y="-315" font-family="Helvetica,sans-Serif" font-size="10.00" fill="#000000">+I:IPaintTool</text>
<polygon fill="none" stroke="#000000" points="708.5,-270 708.5,-302 784.5,-302 784.5,-270 708.5,-270"/>
<text text-anchor="start" x="728.859" y="-283" font-family="Helvetica,sans-Serif" font-size="10.00" fill="#000000">+Paint()</text>
</g>
<!-- A5&#45;&gt;A1 -->
<g id="edge3" class="edge">
<title>A5&#45;&gt;A1</title>
<path fill="none" stroke="#000000" d="M704.3402,-262.6985C675.0176,-235.3639 634.8532,-197.9224 598.6871,-164.2083"/>
<polygon fill="none" stroke="#000000" points="702.2296,-265.5159 711.9308,-269.7745 707.0027,-260.3956 702.2296,-265.5159"/>
</g>
<!-- A5&#45;&gt;A3 -->
<g id="edge4" class="edge">
<title>A5&#45;&gt;A3</title>
<path fill="none" stroke="#000000" d="M765.4926,-260.2162C778.5427,-231.5061 796.2488,-192.5526 811.7792,-158.3857"/>
<polygon fill="none" stroke="#000000" points="762.2071,-258.9862 761.2553,-269.5382 768.5797,-261.8829 762.2071,-258.9862"/>
</g>
</g>
</svg>
