<?xml version="1.0" encoding="UTF-8" standalone="no"?>
<!DOCTYPE svg PUBLIC "-//W3C//DTD SVG 1.1//EN"
 "http://www.w3.org/Graphics/SVG/1.1/DTD/svg11.dtd">
<!-- Generated by graphviz version 2.40.1 (20161225.0304)
 -->
<!-- Title: G Pages: 1 -->
<svg width="1015pt" height="410pt"
 viewBox="0.00 0.00 1015.00 410.00" xmlns="http://www.w3.org/2000/svg" xmlns:xlink="http://www.w3.org/1999/xlink">
<g id="graph0" class="graph" transform="scale(1 1) rotate(0) translate(4 406)">
<title>G</title>
<polygon fill="#ffffff" stroke="transparent" points="-4,4 -4,-406 1011,-406 1011,4 -4,4"/>
<!-- A0 -->
<g id="node1" class="node">
<title>A0</title>
<polygon fill="none" stroke="#000000" points="430.5,-370 430.5,-402 591.5,-402 591.5,-370 430.5,-370"/>
<text text-anchor="start" x="493.6335" y="-383" font-family="Helvetica,sans-Serif" font-size="10.00" fill="#000000">+A:Tool</text>
<polygon fill="none" stroke="#000000" points="430.5,-314 430.5,-370 591.5,-370 591.5,-314 430.5,-314"/>
<text text-anchor="start" x="485.02" y="-351" font-family="Helvetica,sans-Serif" font-size="10.00" fill="#000000">+type:string</text>
<text text-anchor="start" x="472.2425" y="-339" font-family="Helvetica,sans-Serif" font-size="10.00" fill="#000000">+strokeWeight:int</text>
<text text-anchor="start" x="475.992" y="-327" font-family="Helvetica,sans-Serif" font-size="10.00" fill="#000000">&#45;fullness:double</text>
<polygon fill="none" stroke="#000000" points="430.5,-246 430.5,-314 591.5,-314 591.5,-246 430.5,-246"/>
<text text-anchor="start" x="486.4145" y="-295" font-family="Helvetica,sans-Serif" font-size="10.00" fill="#000000">+Fullness:r</text>
<text text-anchor="start" x="440.29" y="-283" font-family="Helvetica,sans-Serif" font-size="10.00" fill="#000000">+Refill(amount:double):double:v</text>
<text text-anchor="start" x="484.7495" y="-271" font-family="Helvetica,sans-Serif" font-size="10.00" fill="#000000">+PickUp():a</text>
<text text-anchor="start" x="483.63" y="-259" font-family="Helvetica,sans-Serif" font-size="10.00" fill="#000000">+PutDown:a</text>
<polygon fill="none" stroke="#000000" points="430.5,-214 430.5,-246 591.5,-246 591.5,-214 430.5,-214"/>
<text text-anchor="start" x="447.383" y="-227" font-family="Helvetica,sans-Serif" font-size="10.00" fill="#000000">(type:string,strokeWeight:int)</text>
</g>
<!-- A1 -->
<g id="node2" class="node">
<title>A1</title>
<polygon fill="none" stroke="#000000" points="353.5,-132 353.5,-164 668.5,-164 668.5,-132 353.5,-132"/>
<text text-anchor="start" x="486.129" y="-145" font-family="Helvetica,sans-Serif" font-size="10.00" fill="#000000">+BrushPen</text>
<polygon fill="none" stroke="#000000" points="353.5,-100 353.5,-132 668.5,-132 668.5,-100 353.5,-100"/>
<text text-anchor="start" x="483.6355" y="-113" font-family="Helvetica,sans-Serif" font-size="10.00" fill="#000000">+color:string</text>
<polygon fill="none" stroke="#000000" points="353.5,-32 353.5,-100 668.5,-100 668.5,-32 353.5,-32"/>
<text text-anchor="start" x="464.745" y="-81" font-family="Helvetica,sans-Serif" font-size="10.00" fill="#000000">+Paint(picture:string)</text>
<text text-anchor="start" x="464.4695" y="-69" font-family="Helvetica,sans-Serif" font-size="10.00" fill="#000000">+Draw(doodle:string)</text>
<text text-anchor="start" x="485.5795" y="-57" font-family="Helvetica,sans-Serif" font-size="10.00" fill="#000000">+Pickup():o</text>
<text text-anchor="start" x="480.301" y="-45" font-family="Helvetica,sans-Serif" font-size="10.00" fill="#000000">+PutDown():o</text>
<polygon fill="none" stroke="#000000" points="353.5,0 353.5,-32 668.5,-32 668.5,0 353.5,0"/>
<text text-anchor="start" x="363.064" y="-13" font-family="Helvetica,sans-Serif" font-size="10.00" fill="#000000">+(type:string,strokeWeight:int,color:string):base(type,strokeWeight)</text>
</g>
<!-- A0&#45;&gt;A1 -->
<g id="edge5" class="edge">
<title>A0&#45;&gt;A1</title>
<path fill="none" stroke="#000000" stroke-dasharray="5,2" d="M510.5,-203.6989C510.5,-190.4432 510.5,-177.027 510.5,-164.1855"/>
<polygon fill="#000000" stroke="#000000" points="510.5,-213.7922 506.0001,-203.7921 510.5,-208.7922 510.5001,-203.7922 510.5001,-203.7922 510.5001,-203.7922 510.5,-208.7922 515.0001,-203.7922 510.5,-213.7922 510.5,-213.7922"/>
</g>
<!-- A2 -->
<g id="node3" class="node">
<title>A2</title>
<polygon fill="none" stroke="#000000" points=".5,-126 .5,-158 335.5,-158 335.5,-126 .5,-126"/>
<text text-anchor="start" x="151.468" y="-139" font-family="Helvetica,sans-Serif" font-size="10.00" fill="#000000">+Pencil</text>
<polygon fill="none" stroke="#000000" points=".5,-94 .5,-126 335.5,-126 335.5,-94 .5,-94"/>
<text text-anchor="start" x="130.9065" y="-107" font-family="Helvetica,sans-Serif" font-size="10.00" fill="#000000">+hardness:string</text>
<polygon fill="none" stroke="#000000" points=".5,-38 .5,-94 335.5,-94 335.5,-38 .5,-38"/>
<text text-anchor="start" x="121.4695" y="-75" font-family="Helvetica,sans-Serif" font-size="10.00" fill="#000000">+Draw(doodle:string)</text>
<text text-anchor="start" x="142.5795" y="-63" font-family="Helvetica,sans-Serif" font-size="10.00" fill="#000000">+Pickup():o</text>
<text text-anchor="start" x="137.301" y="-51" font-family="Helvetica,sans-Serif" font-size="10.00" fill="#000000">+PutDown():o</text>
<polygon fill="none" stroke="#000000" points=".5,-6 .5,-38 335.5,-38 335.5,-6 .5,-6"/>
<text text-anchor="start" x="10.335" y="-19" font-family="Helvetica,sans-Serif" font-size="10.00" fill="#000000">+(type:string,strokeWeight:int,hardness:string):base(type,strokeWeight)</text>
</g>
<!-- A0&#45;&gt;A2 -->
<g id="edge6" class="edge">
<title>A0&#45;&gt;A2</title>
<path fill="none" stroke="#000000" stroke-dasharray="5,2" d="M421.0516,-249.0631C378.8374,-221.2486 327.9457,-187.7164 282.8688,-158.0156"/>
<polygon fill="#000000" stroke="#000000" points="429.6481,-254.7273 418.8219,-252.983 425.4729,-251.9763 421.2978,-249.2253 421.2978,-249.2253 421.2978,-249.2253 425.4729,-251.9763 423.7737,-245.4677 429.6481,-254.7273 429.6481,-254.7273"/>
</g>
<!-- A3 -->
<g id="node4" class="node">
<title>A3</title>
<polygon fill="none" stroke="#000000" points="686.5,-126 686.5,-158 1007.5,-158 1007.5,-126 686.5,-126"/>
<text text-anchor="start" x="819.63" y="-139" font-family="Helvetica,sans-Serif" font-size="10.00" fill="#000000">+PaintBrush</text>
<polygon fill="none" stroke="#000000" points="686.5,-94 686.5,-126 1007.5,-126 1007.5,-94 686.5,-94"/>
<text text-anchor="start" x="816.8505" y="-107" font-family="Helvetica,sans-Serif" font-size="10.00" fill="#000000">+shape:string</text>
<polygon fill="none" stroke="#000000" points="686.5,-38 686.5,-94 1007.5,-94 1007.5,-38 686.5,-38"/>
<text text-anchor="start" x="800.745" y="-75" font-family="Helvetica,sans-Serif" font-size="10.00" fill="#000000">+Paint(picture:string)</text>
<text text-anchor="start" x="821.5795" y="-63" font-family="Helvetica,sans-Serif" font-size="10.00" fill="#000000">+Pickup():o</text>
<text text-anchor="start" x="816.301" y="-51" font-family="Helvetica,sans-Serif" font-size="10.00" fill="#000000">+PutDown():o</text>
<polygon fill="none" stroke="#000000" points="686.5,-6 686.5,-38 1007.5,-38 1007.5,-6 686.5,-6"/>
<text text-anchor="start" x="696.279" y="-19" font-family="Helvetica,sans-Serif" font-size="10.00" fill="#000000">+(type:string,strokeWeight:int,shape:string):base(type,strokeWeight)</text>
</g>
<!-- A0&#45;&gt;A3 -->
<g id="edge7" class="edge">
<title>A0&#45;&gt;A3</title>
<path fill="none" stroke="#000000" stroke-dasharray="5,2" d="M599.7546,-247.9657C640.7165,-220.4139 689.75,-187.4331 733.2754,-158.157"/>
<polygon fill="#000000" stroke="#000000" points="591.408,-253.5798 597.1941,-244.2646 595.5568,-250.7892 599.7056,-247.9986 599.7056,-247.9986 599.7056,-247.9986 595.5568,-250.7892 602.2171,-251.7325 591.408,-253.5798 591.408,-253.5798"/>
</g>
<!-- A4 -->
<g id="node5" class="node">
<title>A4</title>
<polygon fill="none" stroke="#000000" points="232.5,-308 232.5,-340 308.5,-340 308.5,-308 232.5,-308"/>
<text text-anchor="start" x="242.026" y="-321" font-family="Helvetica,sans-Serif" font-size="10.00" fill="#000000">+I:IDrawTool</text>
<polygon fill="none" stroke="#000000" points="232.5,-276 232.5,-308 308.5,-308 308.5,-276 232.5,-276"/>
<text text-anchor="start" x="252.5885" y="-289" font-family="Helvetica,sans-Serif" font-size="10.00" fill="#000000">+Draw()</text>
</g>
<!-- A4&#45;&gt;A1 -->
<g id="edge2" class="edge">
<title>A4&#45;&gt;A1</title>
<path fill="none" stroke="#000000" d="M312.1301,-268.7983C342.6869,-240.024 385.293,-199.9032 423.1902,-164.2168"/>
<polygon fill="none" stroke="#000000" points="309.5121,-266.4561 304.6313,-275.8597 314.311,-271.5522 309.5121,-266.4561"/>
</g>
<!-- A4&#45;&gt;A2 -->
<g id="edge1" class="edge">
<title>A4&#45;&gt;A2</title>
<path fill="none" stroke="#000000" d="M251.4649,-266.2338C237.6933,-236.0164 218.6919,-194.3239 202.2477,-158.2425"/>
<polygon fill="none" stroke="#000000" points="248.4106,-267.9717 255.7426,-275.6197 254.7803,-265.0687 248.4106,-267.9717"/>
</g>
<!-- A5 -->
<g id="node6" class="node">
<title>A5</title>
<polygon fill="none" stroke="#000000" points="708.5,-308 708.5,-340 784.5,-340 784.5,-308 708.5,-308"/>
<text text-anchor="start" x="718.2965" y="-321" font-family="Helvetica,sans-Serif" font-size="10.00" fill="#000000">+I:IPaintTool</text>
<polygon fill="none" stroke="#000000" points="708.5,-276 708.5,-308 784.5,-308 784.5,-276 708.5,-276"/>
<text text-anchor="start" x="728.859" y="-289" font-family="Helvetica,sans-Serif" font-size="10.00" fill="#000000">+Paint()</text>
</g>
<!-- A5&#45;&gt;A1 -->
<g id="edge3" class="edge">
<title>A5&#45;&gt;A1</title>
<path fill="none" stroke="#000000" d="M705.5637,-268.7983C675.5162,-240.024 633.6202,-199.9032 596.3547,-164.2168"/>
<polygon fill="none" stroke="#000000" points="703.2944,-271.4712 712.9376,-275.8597 708.1359,-266.4154 703.2944,-271.4712"/>
</g>
<!-- A5&#45;&gt;A3 -->
<g id="edge4" class="edge">
<title>A5&#45;&gt;A3</title>
<path fill="none" stroke="#000000" d="M764.9806,-266.2338C778.3511,-236.0164 796.7992,-194.3239 812.7644,-158.2425"/>
<polygon fill="none" stroke="#000000" points="761.6733,-265.0587 760.8276,-275.6197 768.0747,-267.8912 761.6733,-265.0587"/>
</g>
</g>
</svg>
