<?xml version="1.0" encoding="UTF-8" standalone="no"?>
<!DOCTYPE svg PUBLIC "-//W3C//DTD SVG 1.1//EN"
 "http://www.w3.org/Graphics/SVG/1.1/DTD/svg11.dtd">
<!-- Generated by graphviz version 2.40.1 (20161225.0304)
 -->
<!-- Title: G Pages: 1 -->
<svg width="1369pt" height="886pt"
 viewBox="0.00 0.00 1368.50 886.00" xmlns="http://www.w3.org/2000/svg" xmlns:xlink="http://www.w3.org/1999/xlink">
<g id="graph0" class="graph" transform="scale(1 1) rotate(0) translate(4 882)">
<title>G</title>
<polygon fill="#ffffff" stroke="transparent" points="-4,4 -4,-882 1364.5,-882 1364.5,4 -4,4"/>
<!-- A0 -->
<g id="node1" class="node">
<title>A0</title>
<polygon fill="none" stroke="#000000" points="0,-840 0,-872 254,-872 254,-840 0,-840"/>
<text text-anchor="start" x="110.7475" y="-853" font-family="Helvetica,sans-Serif" font-size="10.00" fill="#000000">+Hours</text>
<polygon fill="none" stroke="#000000" points="0,-796 0,-840 254,-840 254,-796 0,-796"/>
<text text-anchor="start" x="43.3745" y="-821" font-family="Helvetica,sans-Serif" font-size="10.00" fill="#000000">&#45;week:SortedList&lt;DayOfWeek,string&gt;</text>
<text text-anchor="start" x="37.9555" y="-809" font-family="Helvetica,sans-Serif" font-size="10.00" fill="#000000">+Week:SortedList&lt;DayOfWeek,string&gt;:r</text>
<polygon fill="none" stroke="#000000" points="0,-764 0,-796 254,-796 254,-764 0,-764"/>
<text text-anchor="start" x="9.621" y="-777" font-family="Helvetica,sans-Serif" font-size="10.00" fill="#000000">+EditHours(day:DayOfWeek,open:string,close:string)</text>
<polygon fill="none" stroke="#000000" points="0,-732 0,-764 254,-764 254,-732 0,-732"/>
<text text-anchor="start" x="123.671" y="-745" font-family="Helvetica,sans-Serif" font-size="10.00" fill="#000000">()</text>
</g>
<!-- A1 -->
<g id="node2" class="node">
<title>A1</title>
<polygon fill="none" stroke="#000000" points="273,-834 273,-866 446,-866 446,-834 273,-834"/>
<text text-anchor="start" x="331.573" y="-847" font-family="Helvetica,sans-Serif" font-size="10.00" fill="#000000">+Occupancy</text>
<polygon fill="none" stroke="#000000" points="273,-790 273,-834 446,-834 446,-790 273,-790"/>
<text text-anchor="start" x="282.9585" y="-815" font-family="Helvetica,sans-Serif" font-size="10.00" fill="#000000">&#45;maxPpl:int,+currentOccupancy:int</text>
<text text-anchor="start" x="330.191" y="-803" font-family="Helvetica,sans-Serif" font-size="10.00" fill="#000000">+MaxPpl:int:r</text>
<polygon fill="none" stroke="#000000" points="273,-770 273,-790 446,-790 446,-770 273,-770"/>
<polygon fill="none" stroke="#000000" points="273,-738 273,-770 446,-770 446,-738 273,-738"/>
<text text-anchor="start" x="332.8355" y="-751" font-family="Helvetica,sans-Serif" font-size="10.00" fill="#000000">(maxPpl:int)</text>
</g>
<!-- A2 -->
<g id="node3" class="node">
<title>A2</title>
<polygon fill="none" stroke="#000000" points="464,-840 464,-872 782,-872 782,-840 464,-840"/>
<text text-anchor="start" x="604.7975" y="-853" font-family="Helvetica,sans-Serif" font-size="10.00" fill="#000000">+Events</text>
<polygon fill="none" stroke="#000000" points="464,-808 464,-840 782,-840 782,-808 464,-808"/>
<text text-anchor="start" x="552.143" y="-821" font-family="Helvetica,sans-Serif" font-size="10.00" fill="#000000">events:SortedList&lt;string,Event&gt;</text>
<polygon fill="none" stroke="#000000" points="464,-752 464,-808 782,-808 782,-752 464,-752"/>
<text text-anchor="start" x="473.95" y="-789" font-family="Helvetica,sans-Serif" font-size="10.00" fill="#000000">+AddEvent(name:string,date:string,startTime:string,endTime:string)</text>
<text text-anchor="start" x="474.2305" y="-777" font-family="Helvetica,sans-Serif" font-size="10.00" fill="#000000">+EditEvent(name:string,date:string,startTime:string,endTime:string)</text>
<text text-anchor="start" x="559.241" y="-765" font-family="Helvetica,sans-Serif" font-size="10.00" fill="#000000">+RemoveEvent(name:string)</text>
<polygon fill="none" stroke="#000000" points="464,-732 464,-752 782,-752 782,-732 464,-732"/>
</g>
<!-- A3 -->
<g id="node4" class="node">
<title>A3</title>
<polygon fill="none" stroke="#000000" points="489,-644 489,-676 757,-676 757,-644 489,-644"/>
<text text-anchor="start" x="607.2975" y="-657" font-family="Helvetica,sans-Serif" font-size="10.00" fill="#000000">+Event</text>
<polygon fill="none" stroke="#000000" points="489,-576 489,-644 757,-644 757,-576 489,-576"/>
<text text-anchor="start" x="593.9655" y="-625" font-family="Helvetica,sans-Serif" font-size="10.00" fill="#000000">+name:string</text>
<text text-anchor="start" x="596.7405" y="-613" font-family="Helvetica,sans-Serif" font-size="10.00" fill="#000000">+date:string</text>
<text text-anchor="start" x="585.6375" y="-601" font-family="Helvetica,sans-Serif" font-size="10.00" fill="#000000">+startTime:string</text>
<text text-anchor="start" x="587.022" y="-589" font-family="Helvetica,sans-Serif" font-size="10.00" fill="#000000">+endTime:string</text>
<polygon fill="none" stroke="#000000" points="489,-556 489,-576 757,-576 757,-556 489,-556"/>
<polygon fill="none" stroke="#000000" points="489,-512 489,-556 757,-556 757,-512 489,-512"/>
<text text-anchor="start" x="619.671" y="-537" font-family="Helvetica,sans-Serif" font-size="10.00" fill="#000000">()</text>
<text text-anchor="start" x="498.546" y="-525" font-family="Helvetica,sans-Serif" font-size="10.00" fill="#000000">(name:string,date:string,startTime:string,endTime:string)</text>
</g>
<!-- A2&#45;&gt;A3 -->
<g id="edge1" class="edge">
<title>A2&#45;&gt;A3</title>
<path fill="none" stroke="#000000" d="M623,-731.8707C623,-713.944 623,-694.5101 623,-676.0438"/>
<text text-anchor="middle" x="631.4524" y="-691.17" font-family="Helvetica,sans-Serif" font-size="10.00" fill="#000000">..0</text>
<text text-anchor="middle" x="614.5476" y="-710.7445" font-family="Helvetica,sans-Serif" font-size="10.00" fill="#000000">1</text>
</g>
<!-- A4 -->
<g id="node5" class="node">
<title>A4</title>
<polygon fill="none" stroke="#000000" points="801,-846 801,-878 992,-878 992,-846 801,-846"/>
<text text-anchor="start" x="883.857" y="-859" font-family="Helvetica,sans-Serif" font-size="10.00" fill="#000000">+Map</text>
<polygon fill="none" stroke="#000000" points="801,-778 801,-846 992,-846 992,-778 801,-778"/>
<text text-anchor="start" x="878.445" y="-827" font-family="Helvetica,sans-Serif" font-size="10.00" fill="#000000">&#45;floor:int</text>
<text text-anchor="start" x="872.471" y="-815" font-family="Helvetica,sans-Serif" font-size="10.00" fill="#000000">+Floor:int:r</text>
<text text-anchor="start" x="829.4085" y="-803" font-family="Helvetica,sans-Serif" font-size="10.00" fill="#000000">+walls:SortedList&lt;string:Wall&gt;</text>
<text text-anchor="start" x="810.5015" y="-791" font-family="Helvetica,sans-Serif" font-size="10.00" fill="#000000">+setSchedule:SortedList&lt;string,string&gt;</text>
<polygon fill="none" stroke="#000000" points="801,-758 801,-778 992,-778 992,-758 801,-758"/>
<polygon fill="none" stroke="#000000" points="801,-726 801,-758 992,-758 992,-726 801,-726"/>
<text text-anchor="start" x="893.171" y="-739" font-family="Helvetica,sans-Serif" font-size="10.00" fill="#000000">()</text>
</g>
<!-- A5 -->
<g id="node6" class="node">
<title>A5</title>
<polygon fill="none" stroke="#000000" points="813,-632 813,-664 979,-664 979,-632 813,-632"/>
<text text-anchor="start" x="883.3625" y="-645" font-family="Helvetica,sans-Serif" font-size="10.00" fill="#000000">+Wall</text>
<polygon fill="none" stroke="#000000" points="813,-576 813,-632 979,-632 979,-576 813,-576"/>
<text text-anchor="start" x="868.2205" y="-613" font-family="Helvetica,sans-Serif" font-size="10.00" fill="#000000">&#45;name:string</text>
<text text-anchor="start" x="863.0815" y="-601" font-family="Helvetica,sans-Serif" font-size="10.00" fill="#000000">+Name:string:r</text>
<text text-anchor="start" x="822.799" y="-589" font-family="Helvetica,sans-Serif" font-size="10.00" fill="#000000">+climbs:SortedList&lt;string:Climb&gt;</text>
<polygon fill="none" stroke="#000000" points="813,-556 813,-576 979,-576 979,-556 813,-556"/>
<polygon fill="none" stroke="#000000" points="813,-524 813,-556 979,-556 979,-524 813,-524"/>
<text text-anchor="start" x="892.671" y="-537" font-family="Helvetica,sans-Serif" font-size="10.00" fill="#000000">()</text>
</g>
<!-- A4&#45;&gt;A5 -->
<g id="edge2" class="edge">
<title>A4&#45;&gt;A5</title>
<path fill="none" stroke="#000000" d="M896,-725.7296C896,-705.5554 896,-683.8794 896,-664.0524"/>
<text text-anchor="middle" x="904.4524" y="-679.1785" font-family="Helvetica,sans-Serif" font-size="10.00" fill="#000000">..0</text>
<text text-anchor="middle" x="887.5476" y="-704.6034" font-family="Helvetica,sans-Serif" font-size="10.00" fill="#000000">1</text>
</g>
<!-- A6 -->
<g id="node7" class="node">
<title>A6</title>
<polygon fill="none" stroke="#000000" points="829,-424 829,-456 963,-456 963,-424 829,-424"/>
<text text-anchor="start" x="880.308" y="-437" font-family="Helvetica,sans-Serif" font-size="10.00" fill="#000000">+Climb</text>
<polygon fill="none" stroke="#000000" points="829,-356 829,-424 963,-424 963,-356 829,-356"/>
<text text-anchor="start" x="868.2205" y="-405" font-family="Helvetica,sans-Serif" font-size="10.00" fill="#000000">&#45;name:string</text>
<text text-anchor="start" x="874.885" y="-393" font-family="Helvetica,sans-Serif" font-size="10.00" fill="#000000">&#45;grade:int</text>
<text text-anchor="start" x="863.0815" y="-381" font-family="Helvetica,sans-Serif" font-size="10.00" fill="#000000">+Name:string:r</text>
<text text-anchor="start" x="869.466" y="-369" font-family="Helvetica,sans-Serif" font-size="10.00" fill="#000000">+Grade:int:r</text>
<polygon fill="none" stroke="#000000" points="829,-336 829,-356 963,-356 963,-336 829,-336"/>
<polygon fill="none" stroke="#000000" points="829,-292 829,-336 963,-336 963,-292 829,-292"/>
<text text-anchor="start" x="892.671" y="-317" font-family="Helvetica,sans-Serif" font-size="10.00" fill="#000000">()</text>
<text text-anchor="start" x="838.772" y="-305" font-family="Helvetica,sans-Serif" font-size="10.00" fill="#000000">(name:string,grade:string)</text>
</g>
<!-- A5&#45;&gt;A6 -->
<g id="edge3" class="edge">
<title>A5&#45;&gt;A6</title>
<path fill="none" stroke="#000000" d="M896,-523.7858C896,-502.2823 896,-478.4346 896,-456.2071"/>
<text text-anchor="middle" x="904.4524" y="-471.3332" font-family="Helvetica,sans-Serif" font-size="10.00" fill="#000000">..0</text>
<text text-anchor="middle" x="887.5476" y="-502.6596" font-family="Helvetica,sans-Serif" font-size="10.00" fill="#000000">1</text>
</g>
<!-- A11 -->
<g id="node12" class="node">
<title>A11</title>
<polygon fill="none" stroke="#000000" points="1036,-204 1036,-236 1167,-236 1167,-204 1036,-204"/>
<text text-anchor="start" x="1054.6885" y="-217" font-family="Helvetica,sans-Serif" font-size="10.00" fill="#000000">+PersonalClimbStats</text>
<polygon fill="none" stroke="#000000" points="1036,-76 1036,-204 1167,-204 1167,-76 1036,-76"/>
<text text-anchor="start" x="1073.7205" y="-185" font-family="Helvetica,sans-Serif" font-size="10.00" fill="#000000">&#45;name:string</text>
<text text-anchor="start" x="1080.385" y="-173" font-family="Helvetica,sans-Serif" font-size="10.00" fill="#000000">&#45;grade:int</text>
<text text-anchor="start" x="1079.829" y="-161" font-family="Helvetica,sans-Serif" font-size="10.00" fill="#000000">&#45;sends:int</text>
<text text-anchor="start" x="1073.996" y="-149" font-family="Helvetica,sans-Serif" font-size="10.00" fill="#000000">&#45;attempts:int</text>
<text text-anchor="start" x="1078.44" y="-137" font-family="Helvetica,sans-Serif" font-size="10.00" fill="#000000">&#45;flash:bool</text>
<text text-anchor="start" x="1068.5815" y="-125" font-family="Helvetica,sans-Serif" font-size="10.00" fill="#000000">+Name:string:r</text>
<text text-anchor="start" x="1074.966" y="-113" font-family="Helvetica,sans-Serif" font-size="10.00" fill="#000000">+Grade:int:r</text>
<text text-anchor="start" x="1077.7395" y="-101" font-family="Helvetica,sans-Serif" font-size="10.00" fill="#000000">+Sends:int</text>
<text text-anchor="start" x="1072.186" y="-89" font-family="Helvetica,sans-Serif" font-size="10.00" fill="#000000">+Attempts:int</text>
<polygon fill="none" stroke="#000000" points="1036,-32 1036,-76 1167,-76 1167,-32 1036,-32"/>
<text text-anchor="start" x="1051.345" y="-57" font-family="Helvetica,sans-Serif" font-size="10.00" fill="#000000">+AddSend(date:string)</text>
<text text-anchor="start" x="1045.7915" y="-45" font-family="Helvetica,sans-Serif" font-size="10.00" fill="#000000">+AddAttempt(date:string)</text>
<polygon fill="none" stroke="#000000" points="1036,0 1036,-32 1167,-32 1167,0 1036,0"/>
<text text-anchor="start" x="1098.171" y="-13" font-family="Helvetica,sans-Serif" font-size="10.00" fill="#000000">()</text>
</g>
<!-- A6&#45;&gt;A11 -->
<g id="edge7" class="edge">
<title>A6&#45;&gt;A11</title>
<path fill="none" stroke="#000000" d="M968.1218,-283.9357C989.9908,-256.6261 1013.8881,-226.7837 1035.3112,-200.0308"/>
<polygon fill="#000000" stroke="#000000" points="961.7092,-291.9437 964.4473,-281.3251 964.8345,-288.0408 967.9599,-284.1379 967.9599,-284.1379 967.9599,-284.1379 964.8345,-288.0408 971.4724,-286.9508 961.7092,-291.9437 961.7092,-291.9437"/>
</g>
<!-- A7 -->
<g id="node8" class="node">
<title>A7</title>
<polygon fill="none" stroke="#000000" points="1023,-638 1023,-670 1129,-670 1129,-638 1023,-638"/>
<text text-anchor="start" x="1058.914" y="-651" font-family="Helvetica,sans-Serif" font-size="10.00" fill="#000000">+Profile</text>
<polygon fill="none" stroke="#000000" points="1023,-570 1023,-638 1129,-638 1129,-570 1023,-570"/>
<text text-anchor="start" x="1046.9655" y="-619" font-family="Helvetica,sans-Serif" font-size="10.00" fill="#000000">+name:string</text>
<text text-anchor="start" x="1052.7955" y="-607" font-family="Helvetica,sans-Serif" font-size="10.00" fill="#000000">+height:int</text>
<text text-anchor="start" x="1047.526" y="-595" font-family="Helvetica,sans-Serif" font-size="10.00" fill="#000000">+email:string</text>
<text text-anchor="start" x="1032.653" y="-583" font-family="Helvetica,sans-Serif" font-size="10.00" fill="#000000">personalStats:Stats</text>
<polygon fill="none" stroke="#000000" points="1023,-550 1023,-570 1129,-570 1129,-550 1023,-550"/>
<polygon fill="none" stroke="#000000" points="1023,-518 1023,-550 1129,-550 1129,-518 1023,-518"/>
<text text-anchor="start" x="1072.671" y="-531" font-family="Helvetica,sans-Serif" font-size="10.00" fill="#000000">()</text>
</g>
<!-- A9 -->
<g id="node10" class="node">
<title>A9</title>
<polygon fill="none" stroke="#000000" points="981,-430 981,-462 1221,-462 1221,-430 981,-430"/>
<text text-anchor="start" x="1086.6875" y="-443" font-family="Helvetica,sans-Serif" font-size="10.00" fill="#000000">+Stats</text>
<polygon fill="none" stroke="#000000" points="981,-362 981,-430 1221,-430 1221,-362 981,-362"/>
<text text-anchor="start" x="1025.559" y="-411" font-family="Helvetica,sans-Serif" font-size="10.00" fill="#000000">+sessionToday:SortedList&lt;int,int&gt;</text>
<text text-anchor="start" x="1040.2935" y="-399" font-family="Helvetica,sans-Serif" font-size="10.00" fill="#000000">+allTime:SortedList&lt;int,int&gt;</text>
<text text-anchor="start" x="990.5715" y="-387" font-family="Helvetica,sans-Serif" font-size="10.00" fill="#000000">+allClimbs:SortedList&lt;string:PersonalClimbStats&gt;</text>
<text text-anchor="start" x="1015.5605" y="-375" font-family="Helvetica,sans-Serif" font-size="10.00" fill="#000000">+calendar:SortedList&lt;DayOfWeek,int&gt;</text>
<polygon fill="none" stroke="#000000" points="981,-318 981,-362 1221,-362 1221,-318 981,-318"/>
<text text-anchor="start" x="1052.7995" y="-343" font-family="Helvetica,sans-Serif" font-size="10.00" fill="#000000">+AddClimb(sent:bool)</text>
<text text-anchor="start" x="1038.917" y="-331" font-family="Helvetica,sans-Serif" font-size="10.00" fill="#000000">+Attempt(climbName:string)</text>
<polygon fill="none" stroke="#000000" points="981,-286 981,-318 1221,-318 1221,-286 981,-286"/>
<text text-anchor="start" x="1097.671" y="-299" font-family="Helvetica,sans-Serif" font-size="10.00" fill="#000000">()</text>
</g>
<!-- A7&#45;&gt;A9 -->
<g id="edge4" class="edge">
<title>A7&#45;&gt;A9</title>
<path fill="none" stroke="#000000" d="M1085.8042,-507.7229C1087.5065,-492.7431 1089.2787,-477.1471 1090.9865,-462.119"/>
<polygon fill="#000000" stroke="#000000" points="1084.6386,-517.9804 1081.2965,-507.5362 1085.2032,-513.0124 1085.7678,-508.0444 1085.7678,-508.0444 1085.7678,-508.0444 1085.2032,-513.0124 1090.239,-508.5525 1084.6386,-517.9804 1084.6386,-517.9804"/>
</g>
<!-- A8 -->
<g id="node9" class="node">
<title>A8</title>
<polygon fill="none" stroke="#000000" points="1148,-594 1148,-626 1223,-626 1223,-594 1148,-594"/>
<text text-anchor="start" x="1167.019" y="-607" font-family="Helvetica,sans-Serif" font-size="10.00" fill="#000000">+I:IStats</text>
<polygon fill="none" stroke="#000000" points="1148,-562 1148,-594 1223,-594 1223,-562 1148,-562"/>
<text text-anchor="start" x="1157.5855" y="-575" font-family="Helvetica,sans-Serif" font-size="10.00" fill="#000000">+AddClimb()</text>
</g>
<!-- A8&#45;&gt;A9 -->
<g id="edge5" class="edge">
<title>A8&#45;&gt;A9</title>
<path fill="none" stroke="#000000" d="M1168.9136,-551.8688C1159.2181,-526.476 1146.4985,-493.1628 1134.6915,-462.2395"/>
<polygon fill="none" stroke="#000000" points="1165.7687,-553.4445 1172.6055,-561.5382 1172.3082,-550.9476 1165.7687,-553.4445"/>
</g>
<!-- A9&#45;&gt;A11 -->
<g id="edge6" class="edge">
<title>A9&#45;&gt;A11</title>
<path fill="none" stroke="#000000" d="M1101,-285.8993C1101,-269.8452 1101,-252.8606 1101,-236.1035"/>
<text text-anchor="middle" x="1109.4524" y="-251.2297" font-family="Helvetica,sans-Serif" font-size="10.00" fill="#000000">..0</text>
<text text-anchor="middle" x="1092.5476" y="-264.7732" font-family="Helvetica,sans-Serif" font-size="10.00" fill="#000000">1</text>
</g>
<!-- A10 -->
<g id="node11" class="node">
<title>A10</title>
<polygon fill="none" stroke="#000000" points="1240,-380 1240,-412 1361,-412 1361,-380 1240,-380"/>
<text text-anchor="start" x="1249.52" y="-393" font-family="Helvetica,sans-Serif" font-size="10.00" fill="#000000">+I:IPersonalClimbStats</text>
<polygon fill="none" stroke="#000000" points="1240,-336 1240,-380 1361,-380 1361,-336 1240,-336"/>
<text text-anchor="start" x="1276.6045" y="-361" font-family="Helvetica,sans-Serif" font-size="10.00" fill="#000000">AddSend()</text>
<text text-anchor="start" x="1271.051" y="-349" font-family="Helvetica,sans-Serif" font-size="10.00" fill="#000000">AddAttempt()</text>
</g>
<!-- A10&#45;&gt;A11 -->
<g id="edge8" class="edge">
<title>A10&#45;&gt;A11</title>
<path fill="none" stroke="#000000" d="M1264.1215,-327.8448C1237.0177,-292.9776 1199.0657,-244.1549 1166.5887,-202.3754"/>
<polygon fill="none" stroke="#000000" points="1261.5219,-330.2035 1270.4226,-335.9506 1267.0486,-325.9074 1261.5219,-330.2035"/>
</g>
</g>
</svg>
