<?xml version="1.0" encoding="UTF-8" standalone="no"?>
<!DOCTYPE svg PUBLIC "-//W3C//DTD SVG 1.1//EN"
 "http://www.w3.org/Graphics/SVG/1.1/DTD/svg11.dtd">
<!-- Generated by graphviz version 2.40.1 (20161225.0304)
 -->
<!-- Title: G Pages: 1 -->
<svg width="1369pt" height="874pt"
 viewBox="0.00 0.00 1368.50 874.00" xmlns="http://www.w3.org/2000/svg" xmlns:xlink="http://www.w3.org/1999/xlink">
<g id="graph0" class="graph" transform="scale(1 1) rotate(0) translate(4 870)">
<title>G</title>
<polygon fill="#ffffff" stroke="transparent" points="-4,4 -4,-870 1364.5,-870 1364.5,4 -4,4"/>
<!-- A0 -->
<g id="node1" class="node">
<title>A0</title>
<polygon fill="none" stroke="#000000" points="0,-828 0,-860 254,-860 254,-828 0,-828"/>
<text text-anchor="start" x="110.7475" y="-841" font-family="Helvetica,sans-Serif" font-size="10.00" fill="#000000">+Hours</text>
<polygon fill="none" stroke="#000000" points="0,-784 0,-828 254,-828 254,-784 0,-784"/>
<text text-anchor="start" x="43.3745" y="-809" font-family="Helvetica,sans-Serif" font-size="10.00" fill="#000000">&#45;week:SortedList&lt;DayOfWeek,string&gt;</text>
<text text-anchor="start" x="37.9555" y="-797" font-family="Helvetica,sans-Serif" font-size="10.00" fill="#000000">+Week:SortedList&lt;DayOfWeek,string&gt;:r</text>
<polygon fill="none" stroke="#000000" points="0,-752 0,-784 254,-784 254,-752 0,-752"/>
<text text-anchor="start" x="9.621" y="-765" font-family="Helvetica,sans-Serif" font-size="10.00" fill="#000000">+EditHours(day:DayOfWeek,open:string,close:string)</text>
<polygon fill="none" stroke="#000000" points="0,-720 0,-752 254,-752 254,-720 0,-720"/>
<text text-anchor="start" x="123.671" y="-733" font-family="Helvetica,sans-Serif" font-size="10.00" fill="#000000">()</text>
</g>
<!-- A1 -->
<g id="node2" class="node">
<title>A1</title>
<polygon fill="none" stroke="#000000" points="273,-822 273,-854 446,-854 446,-822 273,-822"/>
<text text-anchor="start" x="331.573" y="-835" font-family="Helvetica,sans-Serif" font-size="10.00" fill="#000000">+Occupancy</text>
<polygon fill="none" stroke="#000000" points="273,-778 273,-822 446,-822 446,-778 273,-778"/>
<text text-anchor="start" x="282.9585" y="-803" font-family="Helvetica,sans-Serif" font-size="10.00" fill="#000000">&#45;maxPpl:int,+currentOccupancy:int</text>
<text text-anchor="start" x="330.191" y="-791" font-family="Helvetica,sans-Serif" font-size="10.00" fill="#000000">+MaxPpl:int:r</text>
<polygon fill="none" stroke="#000000" points="273,-758 273,-778 446,-778 446,-758 273,-758"/>
<polygon fill="none" stroke="#000000" points="273,-726 273,-758 446,-758 446,-726 273,-726"/>
<text text-anchor="start" x="332.8355" y="-739" font-family="Helvetica,sans-Serif" font-size="10.00" fill="#000000">(maxPpl:int)</text>
</g>
<!-- A2 -->
<g id="node3" class="node">
<title>A2</title>
<polygon fill="none" stroke="#000000" points="464,-828 464,-860 782,-860 782,-828 464,-828"/>
<text text-anchor="start" x="604.7975" y="-841" font-family="Helvetica,sans-Serif" font-size="10.00" fill="#000000">+Events</text>
<polygon fill="none" stroke="#000000" points="464,-796 464,-828 782,-828 782,-796 464,-796"/>
<text text-anchor="start" x="552.143" y="-809" font-family="Helvetica,sans-Serif" font-size="10.00" fill="#000000">events:SortedList&lt;string,Event&gt;</text>
<polygon fill="none" stroke="#000000" points="464,-740 464,-796 782,-796 782,-740 464,-740"/>
<text text-anchor="start" x="473.95" y="-777" font-family="Helvetica,sans-Serif" font-size="10.00" fill="#000000">+AddEvent(name:string,date:string,startTime:string,endTime:string)</text>
<text text-anchor="start" x="474.2305" y="-765" font-family="Helvetica,sans-Serif" font-size="10.00" fill="#000000">+EditEvent(name:string,date:string,startTime:string,endTime:string)</text>
<text text-anchor="start" x="559.241" y="-753" font-family="Helvetica,sans-Serif" font-size="10.00" fill="#000000">+RemoveEvent(name:string)</text>
<polygon fill="none" stroke="#000000" points="464,-720 464,-740 782,-740 782,-720 464,-720"/>
</g>
<!-- A3 -->
<g id="node4" class="node">
<title>A3</title>
<polygon fill="none" stroke="#000000" points="489,-632 489,-664 757,-664 757,-632 489,-632"/>
<text text-anchor="start" x="607.2975" y="-645" font-family="Helvetica,sans-Serif" font-size="10.00" fill="#000000">+Event</text>
<polygon fill="none" stroke="#000000" points="489,-564 489,-632 757,-632 757,-564 489,-564"/>
<text text-anchor="start" x="593.9655" y="-613" font-family="Helvetica,sans-Serif" font-size="10.00" fill="#000000">+name:string</text>
<text text-anchor="start" x="596.7405" y="-601" font-family="Helvetica,sans-Serif" font-size="10.00" fill="#000000">+date:string</text>
<text text-anchor="start" x="585.6375" y="-589" font-family="Helvetica,sans-Serif" font-size="10.00" fill="#000000">+startTime:string</text>
<text text-anchor="start" x="587.022" y="-577" font-family="Helvetica,sans-Serif" font-size="10.00" fill="#000000">+endTime:string</text>
<polygon fill="none" stroke="#000000" points="489,-544 489,-564 757,-564 757,-544 489,-544"/>
<polygon fill="none" stroke="#000000" points="489,-500 489,-544 757,-544 757,-500 489,-500"/>
<text text-anchor="start" x="619.671" y="-525" font-family="Helvetica,sans-Serif" font-size="10.00" fill="#000000">()</text>
<text text-anchor="start" x="498.546" y="-513" font-family="Helvetica,sans-Serif" font-size="10.00" fill="#000000">(name:string,date:string,startTime:string,endTime:string)</text>
</g>
<!-- A2&#45;&gt;A3 -->
<g id="edge1" class="edge">
<title>A2&#45;&gt;A3</title>
<path fill="none" stroke="#000000" d="M623,-719.8707C623,-701.944 623,-682.5101 623,-664.0438"/>
<text text-anchor="middle" x="631.4524" y="-679.17" font-family="Helvetica,sans-Serif" font-size="10.00" fill="#000000">..0</text>
<text text-anchor="middle" x="614.5476" y="-698.7445" font-family="Helvetica,sans-Serif" font-size="10.00" fill="#000000">1</text>
</g>
<!-- A4 -->
<g id="node5" class="node">
<title>A4</title>
<polygon fill="none" stroke="#000000" points="801,-834 801,-866 992,-866 992,-834 801,-834"/>
<text text-anchor="start" x="883.857" y="-847" font-family="Helvetica,sans-Serif" font-size="10.00" fill="#000000">+Map</text>
<polygon fill="none" stroke="#000000" points="801,-766 801,-834 992,-834 992,-766 801,-766"/>
<text text-anchor="start" x="878.445" y="-815" font-family="Helvetica,sans-Serif" font-size="10.00" fill="#000000">&#45;floor:int</text>
<text text-anchor="start" x="872.471" y="-803" font-family="Helvetica,sans-Serif" font-size="10.00" fill="#000000">+Floor:int:r</text>
<text text-anchor="start" x="829.4085" y="-791" font-family="Helvetica,sans-Serif" font-size="10.00" fill="#000000">+walls:SortedList&lt;string:Wall&gt;</text>
<text text-anchor="start" x="810.5015" y="-779" font-family="Helvetica,sans-Serif" font-size="10.00" fill="#000000">+setSchedule:SortedList&lt;string,string&gt;</text>
<polygon fill="none" stroke="#000000" points="801,-746 801,-766 992,-766 992,-746 801,-746"/>
<polygon fill="none" stroke="#000000" points="801,-714 801,-746 992,-746 992,-714 801,-714"/>
<text text-anchor="start" x="893.171" y="-727" font-family="Helvetica,sans-Serif" font-size="10.00" fill="#000000">()</text>
</g>
<!-- A5 -->
<g id="node6" class="node">
<title>A5</title>
<polygon fill="none" stroke="#000000" points="813,-620 813,-652 979,-652 979,-620 813,-620"/>
<text text-anchor="start" x="883.3625" y="-633" font-family="Helvetica,sans-Serif" font-size="10.00" fill="#000000">+Wall</text>
<polygon fill="none" stroke="#000000" points="813,-564 813,-620 979,-620 979,-564 813,-564"/>
<text text-anchor="start" x="868.2205" y="-601" font-family="Helvetica,sans-Serif" font-size="10.00" fill="#000000">&#45;name:string</text>
<text text-anchor="start" x="863.0815" y="-589" font-family="Helvetica,sans-Serif" font-size="10.00" fill="#000000">+Name:string:r</text>
<text text-anchor="start" x="822.799" y="-577" font-family="Helvetica,sans-Serif" font-size="10.00" fill="#000000">+climbs:SortedList&lt;string:Climb&gt;</text>
<polygon fill="none" stroke="#000000" points="813,-544 813,-564 979,-564 979,-544 813,-544"/>
<polygon fill="none" stroke="#000000" points="813,-512 813,-544 979,-544 979,-512 813,-512"/>
<text text-anchor="start" x="892.671" y="-525" font-family="Helvetica,sans-Serif" font-size="10.00" fill="#000000">()</text>
</g>
<!-- A4&#45;&gt;A5 -->
<g id="edge2" class="edge">
<title>A4&#45;&gt;A5</title>
<path fill="none" stroke="#000000" d="M896,-713.7296C896,-693.5554 896,-671.8794 896,-652.0524"/>
<text text-anchor="middle" x="904.4524" y="-667.1785" font-family="Helvetica,sans-Serif" font-size="10.00" fill="#000000">..0</text>
<text text-anchor="middle" x="887.5476" y="-692.6034" font-family="Helvetica,sans-Serif" font-size="10.00" fill="#000000">1</text>
</g>
<!-- A6 -->
<g id="node7" class="node">
<title>A6</title>
<polygon fill="none" stroke="#000000" points="829,-412 829,-444 963,-444 963,-412 829,-412"/>
<text text-anchor="start" x="880.308" y="-425" font-family="Helvetica,sans-Serif" font-size="10.00" fill="#000000">+Climb</text>
<polygon fill="none" stroke="#000000" points="829,-344 829,-412 963,-412 963,-344 829,-344"/>
<text text-anchor="start" x="868.2205" y="-393" font-family="Helvetica,sans-Serif" font-size="10.00" fill="#000000">&#45;name:string</text>
<text text-anchor="start" x="874.885" y="-381" font-family="Helvetica,sans-Serif" font-size="10.00" fill="#000000">&#45;grade:int</text>
<text text-anchor="start" x="863.0815" y="-369" font-family="Helvetica,sans-Serif" font-size="10.00" fill="#000000">+Name:string:r</text>
<text text-anchor="start" x="869.466" y="-357" font-family="Helvetica,sans-Serif" font-size="10.00" fill="#000000">+Grade:int:r</text>
<polygon fill="none" stroke="#000000" points="829,-324 829,-344 963,-344 963,-324 829,-324"/>
<polygon fill="none" stroke="#000000" points="829,-280 829,-324 963,-324 963,-280 829,-280"/>
<text text-anchor="start" x="892.671" y="-305" font-family="Helvetica,sans-Serif" font-size="10.00" fill="#000000">()</text>
<text text-anchor="start" x="838.772" y="-293" font-family="Helvetica,sans-Serif" font-size="10.00" fill="#000000">(name:string,grade:string)</text>
</g>
<!-- A5&#45;&gt;A6 -->
<g id="edge3" class="edge">
<title>A5&#45;&gt;A6</title>
<path fill="none" stroke="#000000" d="M896,-511.7858C896,-490.2823 896,-466.4346 896,-444.2071"/>
<text text-anchor="middle" x="904.4524" y="-459.3332" font-family="Helvetica,sans-Serif" font-size="10.00" fill="#000000">..0</text>
<text text-anchor="middle" x="887.5476" y="-490.6596" font-family="Helvetica,sans-Serif" font-size="10.00" fill="#000000">1</text>
</g>
<!-- A11 -->
<g id="node12" class="node">
<title>A11</title>
<polygon fill="none" stroke="#000000" points="1036,-192 1036,-224 1167,-224 1167,-192 1036,-192"/>
<text text-anchor="start" x="1054.6885" y="-205" font-family="Helvetica,sans-Serif" font-size="10.00" fill="#000000">+PersonalClimbStats</text>
<polygon fill="none" stroke="#000000" points="1036,-76 1036,-192 1167,-192 1167,-76 1036,-76"/>
<text text-anchor="start" x="1073.7205" y="-173" font-family="Helvetica,sans-Serif" font-size="10.00" fill="#000000">&#45;name:string</text>
<text text-anchor="start" x="1080.385" y="-161" font-family="Helvetica,sans-Serif" font-size="10.00" fill="#000000">&#45;grade:int</text>
<text text-anchor="start" x="1079.829" y="-149" font-family="Helvetica,sans-Serif" font-size="10.00" fill="#000000">&#45;sends:int</text>
<text text-anchor="start" x="1073.996" y="-137" font-family="Helvetica,sans-Serif" font-size="10.00" fill="#000000">&#45;attempts:int</text>
<text text-anchor="start" x="1068.5815" y="-125" font-family="Helvetica,sans-Serif" font-size="10.00" fill="#000000">+Name:string:r</text>
<text text-anchor="start" x="1074.966" y="-113" font-family="Helvetica,sans-Serif" font-size="10.00" fill="#000000">+Grade:int:r</text>
<text text-anchor="start" x="1077.7395" y="-101" font-family="Helvetica,sans-Serif" font-size="10.00" fill="#000000">+Sends:int</text>
<text text-anchor="start" x="1072.186" y="-89" font-family="Helvetica,sans-Serif" font-size="10.00" fill="#000000">+Attempts:int</text>
<polygon fill="none" stroke="#000000" points="1036,-32 1036,-76 1167,-76 1167,-32 1036,-32"/>
<text text-anchor="start" x="1051.345" y="-57" font-family="Helvetica,sans-Serif" font-size="10.00" fill="#000000">+AddSend(date:string)</text>
<text text-anchor="start" x="1045.7915" y="-45" font-family="Helvetica,sans-Serif" font-size="10.00" fill="#000000">+AddAttempt(date:string)</text>
<polygon fill="none" stroke="#000000" points="1036,0 1036,-32 1167,-32 1167,0 1036,0"/>
<text text-anchor="start" x="1098.171" y="-13" font-family="Helvetica,sans-Serif" font-size="10.00" fill="#000000">()</text>
</g>
<!-- A6&#45;&gt;A11 -->
<g id="edge7" class="edge">
<title>A6&#45;&gt;A11</title>
<path fill="none" stroke="#000000" d="M969.7284,-272.0873C991.212,-245.8878 1014.5306,-217.4505 1035.4717,-191.9126"/>
<polygon fill="#000000" stroke="#000000" points="963.1247,-280.1406 965.9858,-269.5546 966.2951,-276.2743 969.4655,-272.408 969.4655,-272.408 969.4655,-272.408 966.2951,-276.2743 972.9452,-275.2613 963.1247,-280.1406 963.1247,-280.1406"/>
</g>
<!-- A7 -->
<g id="node8" class="node">
<title>A7</title>
<polygon fill="none" stroke="#000000" points="1023,-626 1023,-658 1129,-658 1129,-626 1023,-626"/>
<text text-anchor="start" x="1058.914" y="-639" font-family="Helvetica,sans-Serif" font-size="10.00" fill="#000000">+Profile</text>
<polygon fill="none" stroke="#000000" points="1023,-558 1023,-626 1129,-626 1129,-558 1023,-558"/>
<text text-anchor="start" x="1046.9655" y="-607" font-family="Helvetica,sans-Serif" font-size="10.00" fill="#000000">+name:string</text>
<text text-anchor="start" x="1052.7955" y="-595" font-family="Helvetica,sans-Serif" font-size="10.00" fill="#000000">+height:int</text>
<text text-anchor="start" x="1047.526" y="-583" font-family="Helvetica,sans-Serif" font-size="10.00" fill="#000000">+email:string</text>
<text text-anchor="start" x="1032.653" y="-571" font-family="Helvetica,sans-Serif" font-size="10.00" fill="#000000">personalStats:Stats</text>
<polygon fill="none" stroke="#000000" points="1023,-538 1023,-558 1129,-558 1129,-538 1023,-538"/>
<polygon fill="none" stroke="#000000" points="1023,-506 1023,-538 1129,-538 1129,-506 1023,-506"/>
<text text-anchor="start" x="1072.671" y="-519" font-family="Helvetica,sans-Serif" font-size="10.00" fill="#000000">()</text>
</g>
<!-- A9 -->
<g id="node10" class="node">
<title>A9</title>
<polygon fill="none" stroke="#000000" points="981,-418 981,-450 1221,-450 1221,-418 981,-418"/>
<text text-anchor="start" x="1086.6875" y="-431" font-family="Helvetica,sans-Serif" font-size="10.00" fill="#000000">+Stats</text>
<polygon fill="none" stroke="#000000" points="981,-350 981,-418 1221,-418 1221,-350 981,-350"/>
<text text-anchor="start" x="1025.559" y="-399" font-family="Helvetica,sans-Serif" font-size="10.00" fill="#000000">+sessionToday:SortedList&lt;int,int&gt;</text>
<text text-anchor="start" x="1040.2935" y="-387" font-family="Helvetica,sans-Serif" font-size="10.00" fill="#000000">+allTime:SortedList&lt;int,int&gt;</text>
<text text-anchor="start" x="990.5715" y="-375" font-family="Helvetica,sans-Serif" font-size="10.00" fill="#000000">+allClimbs:SortedList&lt;string:PersonalClimbStats&gt;</text>
<text text-anchor="start" x="1015.5605" y="-363" font-family="Helvetica,sans-Serif" font-size="10.00" fill="#000000">+calendar:SortedList&lt;DayOfWeek,int&gt;</text>
<polygon fill="none" stroke="#000000" points="981,-306 981,-350 1221,-350 1221,-306 981,-306"/>
<text text-anchor="start" x="1052.7995" y="-331" font-family="Helvetica,sans-Serif" font-size="10.00" fill="#000000">+AddClimb(sent:bool)</text>
<text text-anchor="start" x="1038.917" y="-319" font-family="Helvetica,sans-Serif" font-size="10.00" fill="#000000">+Attempt(climbName:string)</text>
<polygon fill="none" stroke="#000000" points="981,-274 981,-306 1221,-306 1221,-274 981,-274"/>
<text text-anchor="start" x="1097.671" y="-287" font-family="Helvetica,sans-Serif" font-size="10.00" fill="#000000">()</text>
</g>
<!-- A7&#45;&gt;A9 -->
<g id="edge4" class="edge">
<title>A7&#45;&gt;A9</title>
<path fill="none" stroke="#000000" d="M1085.8042,-495.7229C1087.5065,-480.7431 1089.2787,-465.1471 1090.9865,-450.119"/>
<polygon fill="#000000" stroke="#000000" points="1084.6386,-505.9804 1081.2965,-495.5362 1085.2032,-501.0124 1085.7678,-496.0444 1085.7678,-496.0444 1085.7678,-496.0444 1085.2032,-501.0124 1090.239,-496.5525 1084.6386,-505.9804 1084.6386,-505.9804"/>
</g>
<!-- A8 -->
<g id="node9" class="node">
<title>A8</title>
<polygon fill="none" stroke="#000000" points="1148,-582 1148,-614 1223,-614 1223,-582 1148,-582"/>
<text text-anchor="start" x="1167.019" y="-595" font-family="Helvetica,sans-Serif" font-size="10.00" fill="#000000">+I:IStats</text>
<polygon fill="none" stroke="#000000" points="1148,-550 1148,-582 1223,-582 1223,-550 1148,-550"/>
<text text-anchor="start" x="1157.5855" y="-563" font-family="Helvetica,sans-Serif" font-size="10.00" fill="#000000">+AddClimb()</text>
</g>
<!-- A8&#45;&gt;A9 -->
<g id="edge5" class="edge">
<title>A8&#45;&gt;A9</title>
<path fill="none" stroke="#000000" stroke-dasharray="5,2" d="M1168.9136,-539.8688C1159.2181,-514.476 1146.4985,-481.1628 1134.6915,-450.2395"/>
<polygon fill="#000000" stroke="#000000" points="1172.6055,-549.5382 1164.8344,-541.8012 1170.822,-544.8671 1169.0384,-540.1961 1169.0384,-540.1961 1169.0384,-540.1961 1170.822,-544.8671 1173.2424,-538.5909 1172.6055,-549.5382 1172.6055,-549.5382"/>
</g>
<!-- A9&#45;&gt;A11 -->
<g id="edge6" class="edge">
<title>A9&#45;&gt;A11</title>
<path fill="none" stroke="#000000" d="M1101,-273.8594C1101,-257.8333 1101,-240.9196 1101,-224.3079"/>
<text text-anchor="middle" x="1109.4524" y="-239.4341" font-family="Helvetica,sans-Serif" font-size="10.00" fill="#000000">..0</text>
<text text-anchor="middle" x="1092.5476" y="-252.7332" font-family="Helvetica,sans-Serif" font-size="10.00" fill="#000000">1</text>
</g>
<!-- A10 -->
<g id="node11" class="node">
<title>A10</title>
<polygon fill="none" stroke="#000000" points="1240,-368 1240,-400 1361,-400 1361,-368 1240,-368"/>
<text text-anchor="start" x="1249.52" y="-381" font-family="Helvetica,sans-Serif" font-size="10.00" fill="#000000">+I:IPersonalClimbStats</text>
<polygon fill="none" stroke="#000000" points="1240,-324 1240,-368 1361,-368 1361,-324 1240,-324"/>
<text text-anchor="start" x="1276.6045" y="-349" font-family="Helvetica,sans-Serif" font-size="10.00" fill="#000000">AddSend()</text>
<text text-anchor="start" x="1271.051" y="-337" font-family="Helvetica,sans-Serif" font-size="10.00" fill="#000000">AddAttempt()</text>
</g>
<!-- A10&#45;&gt;A11 -->
<g id="edge8" class="edge">
<title>A10&#45;&gt;A11</title>
<path fill="none" stroke="#000000" stroke-dasharray="5,2" d="M1263.1703,-315.6906C1252.4734,-302.2429 1240.772,-287.5348 1230,-274 1209.4025,-248.1197 1186.9491,-219.9185 1166.6338,-194.407"/>
<polygon fill="#000000" stroke="#000000" points="1269.6835,-323.879 1259.9366,-318.8541 1266.5709,-319.9659 1263.4584,-316.0528 1263.4584,-316.0528 1263.4584,-316.0528 1266.5709,-319.9659 1266.9802,-313.2515 1269.6835,-323.879 1269.6835,-323.879"/>
</g>
</g>
</svg>
