<?xml version="1.0" encoding="UTF-8" standalone="no"?>
<!DOCTYPE svg PUBLIC "-//W3C//DTD SVG 1.1//EN"
 "http://www.w3.org/Graphics/SVG/1.1/DTD/svg11.dtd">
<!-- Generated by graphviz version 2.40.1 (20161225.0304)
 -->
<!-- Title: G Pages: 1 -->
<svg width="170pt" height="314pt"
 viewBox="0.00 0.00 170.00 314.00" xmlns="http://www.w3.org/2000/svg" xmlns:xlink="http://www.w3.org/1999/xlink">
<g id="graph0" class="graph" transform="scale(1 1) rotate(0) translate(4 310)">
<title>G</title>
<polygon fill="#ffffff" stroke="transparent" points="-4,4 -4,-310 166,-310 166,4 -4,4"/>
<!-- A0 -->
<g id="node1" class="node">
<title>A0</title>
<polygon fill="none" stroke="#000000" points="8,-274 8,-306 79,-306 79,-274 8,-274"/>
<text text-anchor="start" x="19.3345" y="-287" font-family="Helvetica,sans-Serif" font-size="10.00" fill="#000000">A:HotDrink</text>
<polygon fill="none" stroke="#000000" points="8,-254 8,-274 79,-274 79,-254 8,-254"/>
<polygon fill="none" stroke="#000000" points="8,-174 8,-254 79,-254 79,-174 8,-174"/>
<text text-anchor="start" x="28.508" y="-235" font-family="Helvetica,sans-Serif" font-size="10.00" fill="#000000">Drink()</text>
<text text-anchor="start" x="22.394" y="-223" font-family="Helvetica,sans-Serif" font-size="10.00" fill="#000000">AddMilk()</text>
<text text-anchor="start" x="17.94" y="-211" font-family="Helvetica,sans-Serif" font-size="10.00" fill="#000000">AddSugar()</text>
<text text-anchor="start" x="34.6165" y="-199" font-family="Helvetica,sans-Serif" font-size="10.00" fill="#000000">Milk</text>
<text text-anchor="start" x="30.1625" y="-187" font-family="Helvetica,sans-Serif" font-size="10.00" fill="#000000">Sugar</text>
<polygon fill="none" stroke="#000000" points="8,-154 8,-174 79,-174 79,-154 8,-154"/>
</g>
<!-- A2 -->
<g id="node3" class="node">
<title>A2</title>
<polygon fill="none" stroke="#000000" points="0,-72 0,-104 78,-104 78,-72 0,-72"/>
<text text-anchor="start" x="9.8255" y="-85" font-family="Helvetica,sans-Serif" font-size="10.00" fill="#000000">CupOfCoffee</text>
<polygon fill="none" stroke="#000000" points="0,-52 0,-72 78,-72 78,-52 0,-52"/>
<polygon fill="none" stroke="#000000" points="0,-20 0,-52 78,-52 78,-20 0,-20"/>
<text text-anchor="start" x="16.2135" y="-33" font-family="Helvetica,sans-Serif" font-size="10.00" fill="#000000">BeanType</text>
<polygon fill="none" stroke="#000000" points="0,0 0,-20 78,-20 78,0 0,0"/>
</g>
<!-- A0&#45;&gt;A2 -->
<g id="edge1" class="edge">
<title>A0&#45;&gt;A2</title>
<path fill="none" stroke="#000000" stroke-dasharray="5,2" d="M41.0604,-143.6886C40.7564,-130.162 40.4506,-116.5524 40.171,-104.1114"/>
<polygon fill="#000000" stroke="#000000" points="41.292,-153.9957 36.5684,-144.0993 41.1797,-148.9969 41.0673,-143.9982 41.0673,-143.9982 41.0673,-143.9982 41.1797,-148.9969 45.5661,-143.897 41.292,-153.9957 41.292,-153.9957"/>
</g>
<!-- A3 -->
<g id="node4" class="node">
<title>A3</title>
<polygon fill="none" stroke="#000000" points="96,-72 96,-104 162,-104 162,-72 96,-72"/>
<text text-anchor="start" x="105.939" y="-85" font-family="Helvetica,sans-Serif" font-size="10.00" fill="#000000">CupOfTea</text>
<polygon fill="none" stroke="#000000" points="96,-52 96,-72 162,-72 162,-52 96,-52"/>
<polygon fill="none" stroke="#000000" points="96,-20 96,-52 162,-52 162,-20 96,-20"/>
<text text-anchor="start" x="108.1585" y="-33" font-family="Helvetica,sans-Serif" font-size="10.00" fill="#000000">LeafType</text>
<polygon fill="none" stroke="#000000" points="96,0 96,-20 162,-20 162,0 96,0"/>
</g>
<!-- A0&#45;&gt;A3 -->
<g id="edge2" class="edge">
<title>A0&#45;&gt;A3</title>
<path fill="none" stroke="#000000" stroke-dasharray="5,2" d="M82.9885,-147.233C90.0702,-132.5757 97.2612,-117.6919 103.7884,-104.1821"/>
<polygon fill="#000000" stroke="#000000" points="78.6003,-156.3157 78.8988,-145.3539 80.7755,-151.8136 82.9507,-147.3115 82.9507,-147.3115 82.9507,-147.3115 80.7755,-151.8136 87.0025,-149.2692 78.6003,-156.3157 78.6003,-156.3157"/>
</g>
<!-- A1 -->
<g id="node2" class="node">
<title>A1</title>
<polygon fill="none" stroke="#000000" points="100,-248 100,-280 153,-280 153,-248 100,-248"/>
<text text-anchor="start" x="113.163" y="-261" font-family="Helvetica,sans-Serif" font-size="10.00" fill="#000000">I:ICup</text>
<polygon fill="none" stroke="#000000" points="100,-180 100,-248 153,-248 153,-180 100,-180"/>
<text text-anchor="start" x="112.064" y="-229" font-family="Helvetica,sans-Serif" font-size="10.00" fill="#000000">Refill()</text>
<text text-anchor="start" x="110.3925" y="-217" font-family="Helvetica,sans-Serif" font-size="10.00" fill="#000000">Wash()</text>
<text text-anchor="start" x="114.5575" y="-205" font-family="Helvetica,sans-Serif" font-size="10.00" fill="#000000">Color</text>
<text text-anchor="start" x="109.553" y="-193" font-family="Helvetica,sans-Serif" font-size="10.00" fill="#000000">Volume</text>
</g>
<!-- A1&#45;&gt;A2 -->
<g id="edge3" class="edge">
<title>A1&#45;&gt;A2</title>
<path fill="none" stroke="#000000" d="M97.1031,-170.8776C86.5592,-149.3051 74.7205,-125.0833 64.494,-104.1601"/>
<polygon fill="none" stroke="#000000" points="93.9984,-172.496 101.5341,-179.9434 100.2874,-169.4222 93.9984,-172.496"/>
</g>
<!-- A1&#45;&gt;A3 -->
<g id="edge4" class="edge">
<title>A1&#45;&gt;A3</title>
<path fill="none" stroke="#000000" d="M127.016,-169.7194C127.3746,-148.4411 127.7746,-124.7096 128.1209,-104.1601"/>
<polygon fill="none" stroke="#000000" points="123.5128,-169.8858 126.8437,-179.9434 130.5118,-170.0038 123.5128,-169.8858"/>
</g>
</g>
</svg>
