<?xml version="1.0" encoding="UTF-8" standalone="no"?>
<!DOCTYPE svg PUBLIC "-//W3C//DTD SVG 1.1//EN"
 "http://www.w3.org/Graphics/SVG/1.1/DTD/svg11.dtd">
<!-- Generated by graphviz version 2.40.1 (20161225.0304)
 -->
<!-- Title: G Pages: 1 -->
<svg width="118pt" height="302pt"
 viewBox="0.00 0.00 118.00 302.00" xmlns="http://www.w3.org/2000/svg" xmlns:xlink="http://www.w3.org/1999/xlink">
<g id="graph0" class="graph" transform="scale(1 1) rotate(0) translate(4 298)">
<title>G</title>
<polygon fill="#ffffff" stroke="transparent" points="-4,4 -4,-298 114,-298 114,4 -4,4"/>
<!-- A0 -->
<g id="node1" class="node">
<title>A0</title>
<polygon fill="none" stroke="#000000" points="1,-262 1,-294 110,-294 110,-262 1,-262"/>
<text text-anchor="start" x="33.4175" y="-275" font-family="Helvetica,sans-Serif" font-size="10.00" fill="#000000">+MyClass</text>
<polygon fill="none" stroke="#000000" points="1,-230 1,-262 110,-262 110,-230 1,-230"/>
<text text-anchor="start" x="20.502" y="-243" font-family="Helvetica,sans-Serif" font-size="10.00" fill="#000000">&#45;myString:string</text>
<polygon fill="none" stroke="#000000" points="1,-174 1,-230 110,-230 110,-174 1,-174"/>
<text text-anchor="start" x="14.248" y="-211" font-family="Helvetica,sans-Serif" font-size="10.00" fill="#000000">+MyString:string:w</text>
<text text-anchor="start" x="10.6345" y="-187" font-family="Helvetica,sans-Serif" font-size="10.00" fill="#000000">+GetString():string:v</text>
<polygon fill="none" stroke="#000000" points="1,-154 1,-174 110,-174 110,-154 1,-154"/>
</g>
<!-- A1 -->
<g id="node2" class="node">
<title>A1</title>
<polygon fill="none" stroke="#000000" points="0,-72 0,-104 110,-104 110,-72 0,-72"/>
<text text-anchor="start" x="15.6955" y="-85" font-family="Helvetica,sans-Serif" font-size="10.00" fill="#000000">+MyDerivedClass</text>
<polygon fill="none" stroke="#000000" points="0,-52 0,-72 110,-72 110,-52 0,-52"/>
<polygon fill="none" stroke="#000000" points="0,-20 0,-52 110,-52 110,-20 0,-20"/>
<text text-anchor="start" x="9.855" y="-33" font-family="Helvetica,sans-Serif" font-size="10.00" fill="#000000">+GetString():string:o</text>
<polygon fill="none" stroke="#000000" points="0,0 0,-20 110,-20 110,0 0,0"/>
</g>
<!-- A0&#45;&gt;A1 -->
<g id="edge1" class="edge">
<title>A0&#45;&gt;A1</title>
<path fill="none" stroke="#000000" d="M55,-143.4051C55,-130.0734 55,-116.5678 55,-104.1765"/>
<polygon fill="#000000" stroke="#000000" points="55,-153.5447 50.5001,-143.5447 55,-148.5447 55.0001,-143.5447 55.0001,-143.5447 55.0001,-143.5447 55,-148.5447 59.5001,-143.5448 55,-153.5447 55,-153.5447"/>
</g>
</g>
</svg>
